<svg width="80" height="80" viewBox="0 0 80 80" fill="none" xmlns="http://www.w3.org/2000/svg">
<g clip-path="url(#clip0_1_6)">
<path d="M6.0482 65.4794L9.5763 71.5734C10.3094 72.8563 11.3632 73.8643 12.6003 74.5974C16.1438 70.0995 18.6104 66.6478 20.0002 64.2423C21.4105 61.8011 23.144 57.9828 25.2007 52.7874C19.6583 52.0579 15.4581 51.6931 12.6003 51.6931C9.85796 51.6931 5.65784 52.0579 0 52.7874C0 54.2078 0.366559 55.6282 1.09967 56.9111L6.0482 65.4794Z" fill="#0066DA"/>
<path d="M67.4004 74.5974C68.6376 73.8643 69.6914 72.8563 70.4245 71.5734L71.8907 69.0533L78.9011 56.9111C79.6342 55.6282 80.0007 54.2078 80.0007 52.7874C74.3102 52.0579 70.1177 51.6931 67.4233 51.6931C64.5277 51.6931 60.3352 52.0579 54.8459 52.7874C56.8783 58.0113 58.5889 61.8296 59.9777 64.2423C61.3788 66.6762 63.853 70.1279 67.4004 74.5974Z" fill="#EA4335"/>
<path d="M40.0004 27.1285C44.1004 22.1767 46.9259 18.3584 48.477 15.6736C49.726 13.5118 51.1005 10.06 52.6007 5.31842C51.3636 4.5853 49.9432 4.21875 48.477 4.21875H31.5238C30.0575 4.21875 28.6371 4.63112 27.4 5.31842C29.3082 10.7566 30.9274 14.6268 32.2575 16.9292C33.7275 19.4735 36.3084 22.8733 40.0004 27.1285Z" fill="#00832D"/>
<path d="M54.8 52.7874H25.2007L12.6003 74.5974C13.8375 75.3306 15.2579 75.6971 16.7241 75.6971H63.2767C64.7429 75.6971 66.1633 75.2847 67.4005 74.5974L54.8 52.7874Z" fill="#2684FC"/>
<path d="M40.0004 27.1285L27.4001 5.31842C26.1629 6.05152 25.109 7.05951 24.376 8.34252L1.09967 48.6636C0.366559 49.9466 0 51.367 0 52.7874H25.2007L40.0004 27.1285Z" fill="#00AC47"/>
<path d="M67.263 28.5031L55.6248 8.34252C54.8918 7.05951 53.8379 6.05152 52.6007 5.31842L40.0004 27.1285L54.8 52.7874H79.955C79.955 51.367 79.5884 49.9466 78.8553 48.6636L67.263 28.5031Z" fill="#FFBA00"/>
</g>
<defs>
<clipPath id="clip0_1_6">
<rect width="80" height="80" fill="white"/>
</clipPath>
</defs>
</svg>
