<svg width="104" height="104" viewBox="0 0 104 104" fill="none" xmlns="http://www.w3.org/2000/svg">
<path d="M29.4228 33.4721C29.3934 33.3275 29.3505 33.1849 29.2941 33.0494C29.2376 32.9115 29.1675 32.7803 29.0861 32.6582C29.0024 32.5339 28.9097 32.4185 28.8057 32.3145C28.6995 32.2105 28.5841 32.1157 28.4598 32.0342C28.3377 31.9528 28.2065 31.8827 28.071 31.8262C27.9354 31.7698 27.793 31.7245 27.6483 31.6974C27.3566 31.6387 27.056 31.6387 26.7643 31.6974C26.6197 31.7247 26.4771 31.7698 26.3416 31.8262C26.2059 31.8827 26.0725 31.9528 25.9504 32.0342C25.8261 32.1157 25.7107 32.2105 25.6067 32.3145C25.5027 32.4185 25.4079 32.5339 25.3264 32.6582C25.245 32.7803 25.1749 32.9115 25.1184 33.0494C25.0619 33.1851 25.0189 33.3275 24.9896 33.4721C24.9602 33.6168 24.9443 33.7661 24.9443 33.9129C24.9443 34.0598 24.9602 34.2091 24.9896 34.3537C25.0191 34.4983 25.0619 34.6409 25.1184 34.7764C25.1749 34.9143 25.245 35.0455 25.3264 35.1676C25.4079 35.2919 25.5027 35.4073 25.6067 35.5113C25.7107 35.6153 25.8261 35.7102 25.9504 35.7916C26.0725 35.8753 26.2059 35.9432 26.3416 35.9996C26.4773 36.0561 26.6197 36.1014 26.7643 36.1308C26.909 36.1581 27.0583 36.1737 27.2051 36.1737C27.3544 36.1737 27.5013 36.1579 27.6483 36.1308C27.793 36.1014 27.9356 36.0563 28.071 35.9996C28.2067 35.9432 28.3377 35.8753 28.4598 35.7916C28.5841 35.7102 28.6995 35.6153 28.8057 35.5113C28.9097 35.4073 29.0024 35.2919 29.0861 35.1676C29.1675 35.0455 29.2376 34.9143 29.2941 34.7764C29.3505 34.6407 29.3936 34.4983 29.4228 34.3537C29.4521 34.2091 29.4657 34.0598 29.4657 33.9129C29.4657 33.7661 29.4523 33.6168 29.4228 33.4721Z" fill="white" fill-opacity="0.870588"/>
<path d="M101.739 45.2174H94.9567V33.9131C94.9567 32.6645 93.9445 31.6523 92.6959 31.6523H54.2608V26.7418C56.8923 25.8084 58.7825 23.2956 58.7825 20.348C58.7825 16.6081 55.7399 13.5655 52 13.5655C48.2601 13.5655 45.2175 16.6081 45.2175 20.348C45.2175 23.2954 47.1077 25.8084 49.7392 26.7418V31.6523H34.0639C32.8153 31.6523 31.8031 32.6645 31.8031 33.9131C31.8031 35.1617 32.8153 36.1739 34.0639 36.1739H90.4347V47.4782V74.6086V85.9129H13.5653V74.6086V47.4782V36.1739H20.3478C21.5965 36.1739 22.6086 35.1617 22.6086 33.9131C22.6086 32.6645 21.5965 31.6523 20.3478 31.6523H11.3043C10.0557 31.6523 9.04353 32.6645 9.04353 33.9131V45.2174H2.26078C1.01217 45.2174 0 46.2296 0 47.4782V74.6086C0 75.8572 1.01217 76.8694 2.26078 76.8694H9.04333V88.1737C9.04333 89.4223 10.0555 90.4345 11.3041 90.4345H92.6955C93.9441 90.4345 94.9563 89.4223 94.9563 88.1737V76.8694H101.739C102.987 76.8694 104 75.8572 104 74.6086V47.4782C104 46.2296 102.988 45.2174 101.739 45.2174ZM52 22.6086C50.7534 22.6086 49.7392 21.5944 49.7392 20.3478C49.7392 19.1013 50.7534 18.0871 52 18.0871C53.2466 18.0871 54.2608 19.1013 54.2608 20.3478C54.2608 21.5944 53.2466 22.6086 52 22.6086ZM9.04353 72.3478H4.52177V49.7392H9.04353V72.3478ZM99.4782 72.3478H94.9565V49.7392H99.4782V72.3478Z" fill="white" fill-opacity="0.870588"/>
<path d="M33.9132 49.7392C30.1732 49.7392 27.1306 52.7818 27.1306 56.5218C27.1306 60.2617 30.1732 63.3043 33.9132 63.3043C37.6531 63.3043 40.6957 60.2617 40.6957 56.5218C40.6957 52.7818 37.6531 49.7392 33.9132 49.7392ZM33.9132 58.7826C32.6666 58.7826 31.6524 57.7684 31.6524 56.5218C31.6524 55.2752 32.6666 54.261 33.9132 54.261C35.1597 54.261 36.1739 55.2752 36.1739 56.5218C36.1739 57.7684 35.1597 58.7826 33.9132 58.7826Z" fill="white" fill-opacity="0.870588"/>
<path d="M70.0869 49.7392C66.3469 49.7392 63.3043 52.7818 63.3043 56.5218C63.3043 60.2617 66.3469 63.3043 70.0869 63.3043C73.8268 63.3043 76.8694 60.2617 76.8694 56.5218C76.8696 52.7818 73.8268 49.7392 70.0869 49.7392ZM70.0869 58.7826C68.8403 58.7826 67.8261 57.7684 67.8261 56.5218C67.8261 55.2752 68.8403 54.261 70.0869 54.261C71.3334 54.261 72.3476 55.2752 72.3476 56.5218C72.3476 57.7684 71.3336 58.7826 70.0869 58.7826Z" fill="white" fill-opacity="0.870588"/>
<path d="M63.3043 63.3043H40.6957C39.4471 63.3043 38.4349 64.3165 38.4349 65.5651C38.4349 73.045 44.5204 79.1304 52.0002 79.1304C59.4801 79.1304 65.5655 73.045 65.5655 65.5651C65.5653 64.3165 64.553 63.3043 63.3043 63.3043ZM52 74.6086C47.7939 74.6086 44.2492 71.7222 43.2427 67.8261H60.7574C59.7509 71.7222 56.2061 74.6086 52 74.6086Z" fill="white" fill-opacity="0.870588"/>
</svg>
