<svg width="319" height="319" viewBox="0 0 319 319" fill="none" xmlns="http://www.w3.org/2000/svg">
<g clip-path="url(#clip0_1_70)">
<path d="M227.321 7.5H40.342V310.688H277.846V58.025L227.321 7.5Z" fill="#E8E8E8"/>
<path d="M218.292 69.204H98.4021V189.094H218.292V69.204Z" fill="#D0C5D9"/>
<path d="M192.295 130.178L168.483 170.358L129.743 104.984L98.4021 157.872V189.093H218.292V174.049L192.295 130.178Z" fill="#007934"/>
<path d="M235.14 32.763H40.342V7.5H227.321L235.14 32.763Z" fill="#D0C5D9"/>
<path d="M227.321 58.025H277.846L227.321 7.5V58.025Z" fill="#D1D3D3"/>
<path d="M105.856 277.794C105.856 280.923 105.397 283.132 104.478 284.423C103.559 285.714 102.027 286.359 99.884 286.359C98.965 286.359 98.112 286.277 97.324 286.113C96.536 285.949 95.793 285.801 95.093 285.67V295.745C97.216 296.204 99.458 296.434 101.821 296.434C107.509 296.434 111.776 294.765 114.62 291.429C117.464 288.093 118.886 283.176 118.886 276.678V233.391H105.858V255.592V277.794H105.856ZM159.513 237.363C156.472 234.716 151.921 233.392 145.861 233.392H129.255V281.371H142.218V265.454H145.861C151.681 265.454 156.171 263.994 159.333 261.073C162.493 258.153 164.075 254.012 164.075 248.652C164.075 243.773 162.554 240.01 159.513 237.363ZM149.224 253.247C148.076 254.341 146.529 254.888 144.581 254.888H142.218V243.862H145.566C149.154 243.862 150.949 245.481 150.949 248.719C150.948 250.643 150.374 252.153 149.224 253.247ZM190.984 263.289H199.549V270.804C197.93 271.177 196.157 271.362 194.233 271.362C190.71 271.362 188.014 270.186 186.143 267.834C184.273 265.482 183.337 262.063 183.337 257.578C183.337 253.006 184.37 249.489 186.439 247.027C188.506 244.566 191.432 243.335 195.217 243.335C199.352 243.335 203.148 244.189 206.605 245.895L210.708 235.721C208.717 234.846 206.381 234.124 203.701 233.555C201.02 232.987 198.171 232.702 195.152 232.702C187.188 232.702 180.996 234.857 176.577 239.167C172.158 243.478 169.948 249.505 169.948 257.25C169.948 265.192 171.967 271.308 176.003 275.595C180.04 279.883 185.755 282.027 193.15 282.027C199.888 282.027 206.069 281.065 211.692 279.139V253.279H190.984V263.289ZM283.149 52.722L232.625 2.197C231.218 0.79 229.311 0 227.321 0H40.342C36.2 0 32.842 3.358 32.842 7.5V310.688C32.842 314.83 36.2 318.188 40.342 318.188H277.846C281.989 318.188 285.346 314.83 285.346 310.688V58.025C285.346 56.036 284.556 54.129 283.149 52.722ZM234.821 25.606L259.739 50.525H234.821V25.606ZM47.842 15H219.821V25.263H47.842V15ZM270.346 303.188H47.842V40.263H219.821V58.026C219.821 62.168 223.178 65.526 227.321 65.526H270.345V303.188H270.346Z" fill="#333E48"/>
<rect x="81" y="226" width="147" height="71" fill="#E8E8E8"/>
<path d="M76.0089 282V215.818H103.606C108.561 215.818 112.708 216.518 116.048 217.919C119.408 219.319 121.929 221.279 123.609 223.8C125.311 226.321 126.162 229.24 126.162 232.558C126.162 235.078 125.634 237.329 124.579 239.311C123.523 241.272 122.069 242.898 120.216 244.191C118.364 245.484 116.22 246.388 113.786 246.906V247.552C116.457 247.681 118.924 248.403 121.186 249.717C123.469 251.031 125.301 252.862 126.679 255.211C128.058 257.537 128.748 260.295 128.748 263.483C128.748 267.038 127.843 270.216 126.033 273.016C124.223 275.795 121.606 277.993 118.18 279.609C114.755 281.203 110.597 282 105.707 282H76.0089ZM92.005 269.106H101.893C105.362 269.106 107.915 268.449 109.552 267.135C111.211 265.821 112.04 263.99 112.04 261.641C112.04 259.939 111.642 258.474 110.845 257.246C110.048 255.997 108.917 255.038 107.452 254.37C105.987 253.681 104.231 253.336 102.184 253.336H92.005V269.106ZM92.005 243.028H100.859C102.604 243.028 104.156 242.737 105.513 242.155C106.87 241.574 107.926 240.733 108.68 239.635C109.455 238.536 109.843 237.211 109.843 235.66C109.843 233.441 109.057 231.696 107.484 230.425C105.911 229.154 103.789 228.518 101.118 228.518H92.005V243.028ZM130.069 215.818H149.878L166.682 256.794H167.457L184.261 215.818H204.071V282H188.495V241.347H187.945L172.046 281.58H162.093L146.194 241.121H145.645V282H130.069V215.818ZM207.678 282V215.818H235.017C239.972 215.818 244.248 216.788 247.846 218.727C251.465 220.644 254.255 223.326 256.216 226.773C258.176 230.199 259.156 234.184 259.156 238.73C259.156 243.297 258.155 247.293 256.151 250.719C254.169 254.123 251.336 256.762 247.652 258.636C243.968 260.51 239.595 261.447 234.532 261.447H217.663V248.844H231.559C233.972 248.844 235.986 248.424 237.602 247.584C239.239 246.744 240.478 245.57 241.318 244.062C242.159 242.532 242.579 240.755 242.579 238.73C242.579 236.683 242.159 234.917 241.318 233.43C240.478 231.922 239.239 230.759 237.602 229.94C235.965 229.121 233.95 228.712 231.559 228.712H223.674V282H207.678Z" fill="#333E48"/>
</g>
<defs>
<clipPath id="clip0_1_70">
<rect width="318.188" height="318.188" fill="white"/>
</clipPath>
</defs>
</svg>
