<svg width="319" height="319" viewBox="0 0 319 319" fill="none" xmlns="http://www.w3.org/2000/svg">
<g clip-path="url(#clip0_1_37)">
<path d="M227.321 7.5H40.342V310.688H277.846V58.025L227.321 7.5Z" fill="#E8E8E8"/>
<path d="M218.292 69.204H98.4021V189.094H218.292V69.204Z" fill="#E259E4"/>
<path d="M192.295 130.178L168.483 170.358L129.743 104.984L98.4021 157.872V189.093H218.292V174.049L192.295 130.178Z" fill="#007934"/>
<path d="M235.14 32.763H40.342V7.5H227.321L235.14 32.763Z" fill="#E259E4"/>
<path d="M227.321 58.025H277.846L227.321 7.5V58.025Z" fill="#D1D3D3"/>
<path d="M105.856 277.794C105.856 280.923 105.397 283.132 104.478 284.423C103.559 285.714 102.027 286.359 99.884 286.359C98.965 286.359 98.112 286.277 97.324 286.113C96.536 285.949 95.793 285.801 95.093 285.67V295.745C97.216 296.204 99.458 296.434 101.821 296.434C107.509 296.434 111.776 294.765 114.62 291.429C117.464 288.093 118.886 283.176 118.886 276.678V233.391H105.858V255.592V277.794H105.856ZM159.513 237.363C156.472 234.716 151.921 233.392 145.861 233.392H129.255V281.371H142.218V265.454H145.861C151.681 265.454 156.171 263.994 159.333 261.073C162.493 258.153 164.075 254.012 164.075 248.652C164.075 243.773 162.554 240.01 159.513 237.363ZM149.224 253.247C148.076 254.341 146.529 254.888 144.581 254.888H142.218V243.862H145.566C149.154 243.862 150.949 245.481 150.949 248.719C150.948 250.643 150.374 252.153 149.224 253.247ZM190.984 263.289H199.549V270.804C197.93 271.177 196.157 271.362 194.233 271.362C190.71 271.362 188.014 270.186 186.143 267.834C184.273 265.482 183.337 262.063 183.337 257.578C183.337 253.006 184.37 249.489 186.439 247.027C188.506 244.566 191.432 243.335 195.217 243.335C199.352 243.335 203.148 244.189 206.605 245.895L210.708 235.721C208.717 234.846 206.381 234.124 203.701 233.555C201.02 232.987 198.171 232.702 195.152 232.702C187.188 232.702 180.996 234.857 176.577 239.167C172.158 243.478 169.948 249.505 169.948 257.25C169.948 265.192 171.967 271.308 176.003 275.595C180.04 279.883 185.755 282.027 193.15 282.027C199.888 282.027 206.069 281.065 211.692 279.139V253.279H190.984V263.289ZM283.149 52.722L232.625 2.197C231.218 0.79 229.311 0 227.321 0H40.342C36.2 0 32.842 3.358 32.842 7.5V310.688C32.842 314.83 36.2 318.188 40.342 318.188H277.846C281.989 318.188 285.346 314.83 285.346 310.688V58.025C285.346 56.036 284.556 54.129 283.149 52.722ZM234.821 25.606L259.739 50.525H234.821V25.606ZM47.842 15H219.821V25.263H47.842V15ZM270.346 303.188H47.842V40.263H219.821V58.026C219.821 62.168 223.178 65.526 227.321 65.526H270.345V303.188H270.346Z" fill="#333E48"/>
<rect x="81" y="226" width="147" height="71" fill="#E8E8E8"/>
<path d="M133.441 237.437C133.074 236.08 132.536 234.884 131.825 233.85C131.114 232.795 130.241 231.9 129.207 231.168C128.173 230.435 126.988 229.886 125.653 229.52C124.317 229.132 122.852 228.938 121.258 228.938C118.048 228.938 115.269 229.714 112.92 231.265C110.594 232.816 108.795 235.078 107.524 238.051C106.253 241.003 105.617 244.59 105.617 248.812C105.617 253.056 106.231 256.676 107.459 259.67C108.687 262.665 110.464 264.948 112.791 266.521C115.118 268.094 117.94 268.88 121.258 268.88C124.188 268.88 126.665 268.406 128.69 267.458C130.737 266.489 132.288 265.121 133.344 263.354C134.399 261.587 134.927 259.509 134.927 257.117L137.9 257.473H121.807V245.807H150.342V254.564C150.342 260.489 149.081 265.562 146.561 269.785C144.062 274.007 140.615 277.25 136.22 279.512C131.846 281.774 126.816 282.905 121.129 282.905C114.816 282.905 109.269 281.537 104.486 278.801C99.7035 276.065 95.9764 272.165 93.305 267.103C90.6336 262.018 89.2979 255.986 89.2979 249.006C89.2979 243.577 90.1058 238.762 91.7216 234.561C93.3374 230.339 95.5887 226.762 98.4755 223.832C101.384 220.902 104.745 218.683 108.558 217.175C112.393 215.667 116.518 214.913 120.935 214.913C124.769 214.913 128.335 215.463 131.631 216.561C134.949 217.66 137.879 219.211 140.421 221.215C142.984 223.218 145.063 225.599 146.658 228.357C148.252 231.114 149.243 234.141 149.631 237.437H133.441ZM169.396 215.818V282H153.4V215.818H169.396ZM173.068 282V215.818H218.245V228.809H189.064V242.381H215.368V255.404H189.064V282H173.068Z" fill="#333E48"/>
</g>
<defs>
<clipPath id="clip0_1_37">
<rect width="318.188" height="318.188" fill="white"/>
</clipPath>
</defs>
</svg>
