<svg width="319" height="319" viewBox="0 0 319 319" fill="none" xmlns="http://www.w3.org/2000/svg">
<g clip-path="url(#clip0_1_4)">
<path d="M227.321 7.5H40.342V310.688H277.846V58.025L227.321 7.5Z" fill="#E8E8E8"/>
<path d="M218.292 69.204H98.402V189.094H218.292V69.204Z" fill="#38A3FF"/>
<path d="M192.295 130.178L168.483 170.358L129.743 104.984L98.402 157.872V189.093H218.292V174.049L192.295 130.178Z" fill="#007934"/>
<path d="M235.14 32.763H40.342V7.5H227.321L235.14 32.763Z" fill="#38A3FF"/>
<path d="M227.321 58.025H277.846L227.321 7.5V58.025Z" fill="#D1D3D3"/>
<path d="M105.856 277.794C105.856 280.923 105.397 283.132 104.478 284.423C103.559 285.714 102.027 286.359 99.884 286.359C98.965 286.359 98.112 286.277 97.324 286.113C96.536 285.949 95.793 285.801 95.093 285.67V295.745C97.216 296.204 99.458 296.434 101.821 296.434C107.509 296.434 111.776 294.765 114.62 291.429C117.464 288.093 118.886 283.176 118.886 276.678V233.391H105.858V255.592V277.794H105.856ZM159.513 237.363C156.472 234.716 151.921 233.392 145.861 233.392H129.255V281.371H142.218V265.454H145.861C151.681 265.454 156.171 263.994 159.333 261.073C162.493 258.153 164.075 254.012 164.075 248.652C164.075 243.773 162.554 240.01 159.513 237.363ZM149.224 253.247C148.076 254.341 146.529 254.888 144.581 254.888H142.218V243.862H145.566C149.154 243.862 150.949 245.481 150.949 248.719C150.948 250.643 150.374 252.153 149.224 253.247ZM190.984 263.289H199.549V270.804C197.93 271.177 196.157 271.362 194.233 271.362C190.71 271.362 188.014 270.186 186.143 267.834C184.273 265.482 183.337 262.063 183.337 257.578C183.337 253.006 184.37 249.489 186.439 247.027C188.506 244.566 191.432 243.335 195.217 243.335C199.352 243.335 203.148 244.189 206.605 245.895L210.708 235.721C208.717 234.846 206.381 234.124 203.701 233.555C201.02 232.987 198.171 232.702 195.152 232.702C187.188 232.702 180.996 234.857 176.577 239.167C172.158 243.478 169.948 249.505 169.948 257.25C169.948 265.192 171.967 271.308 176.003 275.595C180.04 279.883 185.755 282.027 193.15 282.027C199.888 282.027 206.069 281.065 211.692 279.139V253.279H190.984V263.289ZM283.149 52.722L232.625 2.197C231.218 0.79 229.311 0 227.321 0H40.342C36.2 0 32.842 3.358 32.842 7.5V310.688C32.842 314.83 36.2 318.188 40.342 318.188H277.846C281.989 318.188 285.346 314.83 285.346 310.688V58.025C285.346 56.036 284.556 54.129 283.149 52.722ZM234.821 25.606L259.739 50.525H234.821V25.606ZM47.842 15H219.821V25.263H47.842V15ZM270.346 303.188H47.842V40.263H219.821V58.026C219.821 62.168 223.178 65.526 227.321 65.526H270.345V303.188H270.346Z" fill="#333E48"/>
<rect x="81" y="226" width="147" height="71" fill="#E8E8E8"/>
<path d="M82.1942 216.273H97.6175V261.026C97.5965 265.219 96.5956 268.885 94.6151 272.024C92.6345 275.143 89.8954 277.566 86.3977 279.293C82.9212 281.021 78.8968 281.885 74.3246 281.885C70.2791 281.885 66.6024 281.179 63.2944 279.767C60.0075 278.356 57.3842 276.164 55.4247 273.194C53.4863 270.223 52.5276 266.42 52.5487 261.784H68.13C68.1932 263.449 68.5092 264.871 69.0781 266.051C69.6681 267.21 70.4793 268.084 71.5117 268.674C72.5442 269.264 73.7768 269.559 75.2095 269.559C76.7055 269.559 77.9697 269.243 79.0021 268.611C80.0346 267.958 80.8142 266.999 81.3409 265.735C81.8887 264.471 82.1732 262.901 82.1942 261.026V216.273ZM101.209 281V216.273H127.947C132.793 216.273 136.975 217.221 140.494 219.117C144.034 220.992 146.762 223.616 148.68 226.987C150.597 230.337 151.556 234.235 151.556 238.681C151.556 243.148 150.576 247.056 148.617 250.406C146.678 253.735 143.907 256.316 140.304 258.15C136.701 259.983 132.424 260.899 127.473 260.899H110.975V248.573H124.565C126.925 248.573 128.895 248.162 130.475 247.341C132.076 246.519 133.288 245.371 134.11 243.896C134.931 242.4 135.342 240.661 135.342 238.681C135.342 236.679 134.931 234.951 134.11 233.498C133.288 232.023 132.076 230.885 130.475 230.084C128.874 229.283 126.904 228.883 124.565 228.883H116.853V281H101.209ZM153.037 281V216.273H198.17V228.978H168.682V242.252H195.862V254.989H168.682V268.295H198.17V281H153.037ZM244.214 237.417C243.856 236.089 243.329 234.92 242.634 233.908C241.939 232.876 241.085 232.002 240.074 231.285C239.063 230.569 237.904 230.031 236.598 229.673C235.291 229.294 233.858 229.104 232.299 229.104C229.16 229.104 226.442 229.863 224.145 231.38C221.87 232.897 220.11 235.109 218.867 238.017C217.624 240.904 217.002 244.412 217.002 248.542C217.002 252.692 217.603 256.232 218.804 259.161C220.005 262.09 221.743 264.323 224.019 265.861C226.294 267.399 229.054 268.168 232.299 268.168C235.165 268.168 237.588 267.705 239.568 266.778C241.57 265.83 243.087 264.492 244.12 262.764C245.152 261.036 245.668 259.003 245.668 256.664L248.576 257.012H232.837V245.602H260.744V254.167C260.744 259.962 259.511 264.924 257.046 269.053C254.602 273.183 251.231 276.354 246.932 278.566C242.655 280.779 237.735 281.885 232.173 281.885C225.999 281.885 220.574 280.547 215.896 277.871C211.219 275.195 207.574 271.382 204.961 266.43C202.348 261.458 201.042 255.558 201.042 248.731C201.042 243.422 201.832 238.712 203.412 234.604C204.992 230.474 207.194 226.976 210.018 224.111C212.862 221.245 216.149 219.075 219.878 217.6C223.629 216.125 227.664 215.388 231.983 215.388C235.734 215.388 239.221 215.925 242.444 217C245.689 218.074 248.555 219.591 251.041 221.551C253.548 223.51 255.582 225.839 257.141 228.536C258.7 231.232 259.669 234.193 260.049 237.417H244.214Z" fill="#333E48"/>
</g>
<defs>
<clipPath id="clip0_1_4">
<rect width="318.188" height="318.188" fill="white"/>
</clipPath>
</defs>
</svg>
