<svg width="319" height="319" viewBox="0 0 319 319" fill="none" xmlns="http://www.w3.org/2000/svg">
<g clip-path="url(#clip0_0_12)">
<path d="M227.321 7.5H40.342V310.688H277.846V58.025L227.321 7.5Z" fill="#E8E8E8"/>
<path d="M218.292 69.204H98.402V189.094H218.292V69.204Z" fill="#FC5C5C"/>
<path d="M192.295 130.178L168.483 170.358L129.743 104.984L98.402 157.872V189.093H218.292V174.049L192.295 130.178Z" fill="#007934"/>
<path d="M235.14 32.763H40.342V7.5H227.321L235.14 32.763Z" fill="#FC5C5C"/>
<path d="M227.321 58.025H277.846L227.321 7.5V58.025Z" fill="#D1D3D3"/>
<path d="M105.856 277.794C105.856 280.923 105.397 283.132 104.478 284.423C103.559 285.714 102.027 286.359 99.884 286.359C98.965 286.359 98.112 286.277 97.324 286.113C96.536 285.949 95.793 285.801 95.093 285.67V295.745C97.216 296.204 99.458 296.434 101.821 296.434C107.509 296.434 111.776 294.765 114.62 291.429C117.464 288.093 118.886 283.176 118.886 276.678V233.391H105.858V255.592V277.794H105.856ZM159.513 237.363C156.472 234.716 151.921 233.392 145.861 233.392H129.255V281.371H142.218V265.454H145.861C151.681 265.454 156.171 263.994 159.333 261.073C162.493 258.153 164.075 254.012 164.075 248.652C164.075 243.773 162.554 240.01 159.513 237.363ZM149.224 253.247C148.076 254.341 146.529 254.888 144.581 254.888H142.218V243.862H145.566C149.154 243.862 150.949 245.481 150.949 248.719C150.948 250.643 150.374 252.153 149.224 253.247ZM190.984 263.289H199.549V270.804C197.93 271.177 196.157 271.362 194.233 271.362C190.71 271.362 188.014 270.186 186.143 267.834C184.273 265.482 183.337 262.063 183.337 257.578C183.337 253.006 184.37 249.489 186.439 247.027C188.506 244.566 191.432 243.335 195.217 243.335C199.352 243.335 203.148 244.189 206.605 245.895L210.708 235.721C208.717 234.846 206.381 234.124 203.701 233.555C201.02 232.987 198.171 232.702 195.152 232.702C187.188 232.702 180.996 234.857 176.577 239.167C172.158 243.478 169.948 249.505 169.948 257.25C169.948 265.192 171.967 271.308 176.003 275.595C180.04 279.883 185.755 282.027 193.15 282.027C199.888 282.027 206.069 281.065 211.692 279.139V253.279H190.984V263.289ZM283.149 52.722L232.625 2.197C231.218 0.79 229.311 0 227.321 0H40.342C36.2 0 32.842 3.358 32.842 7.5V310.688C32.842 314.83 36.2 318.188 40.342 318.188H277.846C281.989 318.188 285.346 314.83 285.346 310.688V58.025C285.346 56.036 284.556 54.129 283.149 52.722ZM234.821 25.606L259.739 50.525H234.821V25.606ZM47.842 15H219.821V25.263H47.842V15ZM270.346 303.188H47.842V40.263H219.821V58.026C219.821 62.168 223.178 65.526 227.321 65.526H270.345V303.188H270.346Z" fill="#333E48"/>
<rect x="81" y="226" width="147" height="71" fill="#E8E8E8"/>
<path d="M77.0639 283V216.091H104.703C109.713 216.091 114.036 217.071 117.673 219.031C121.332 220.97 124.153 223.681 126.135 227.166C128.117 230.629 129.108 234.659 129.108 239.254C129.108 243.872 128.095 247.912 126.07 251.375C124.066 254.816 121.202 257.484 117.477 259.379C113.753 261.274 109.331 262.222 104.213 262.222H87.1591V249.48H101.207C103.647 249.48 105.683 249.055 107.317 248.206C108.972 247.357 110.224 246.17 111.074 244.645C111.923 243.098 112.348 241.302 112.348 239.254C112.348 237.185 111.923 235.399 111.074 233.896C110.224 232.372 108.972 231.196 107.317 230.368C105.661 229.54 103.625 229.126 101.207 229.126H93.2358V283H77.0639ZM187.584 216.091V283H173.863L147.236 244.384H146.811V283H130.64V216.091H144.557L170.89 254.642H171.445V216.091H187.584ZM235.222 237.947C234.852 236.575 234.307 235.366 233.588 234.321C232.87 233.254 231.988 232.35 230.942 231.609C229.897 230.869 228.699 230.313 227.348 229.943C225.998 229.551 224.517 229.355 222.905 229.355C219.66 229.355 216.85 230.139 214.476 231.707C212.124 233.276 210.305 235.562 209.02 238.568C207.735 241.552 207.093 245.179 207.093 249.447C207.093 253.738 207.713 257.397 208.955 260.425C210.196 263.452 211.993 265.761 214.346 267.351C216.698 268.941 219.551 269.736 222.905 269.736C225.867 269.736 228.372 269.257 230.419 268.298C232.488 267.318 234.057 265.935 235.124 264.149C236.191 262.363 236.725 260.261 236.725 257.844L239.73 258.203H223.461V246.409H252.309V255.263C252.309 261.252 251.034 266.382 248.486 270.651C245.96 274.92 242.475 278.197 238.032 280.484C233.61 282.771 228.524 283.915 222.774 283.915C216.393 283.915 210.784 282.532 205.949 279.766C201.114 277 197.346 273.057 194.645 267.939C191.944 262.799 190.594 256.7 190.594 249.643C190.594 244.155 191.411 239.287 193.044 235.04C194.678 230.771 196.954 227.155 199.872 224.193C202.813 221.231 206.211 218.988 210.066 217.463C213.943 215.938 218.113 215.176 222.578 215.176C226.455 215.176 230.06 215.732 233.392 216.842C236.747 217.953 239.709 219.521 242.279 221.547C244.871 223.572 246.972 225.979 248.584 228.767C250.196 231.555 251.198 234.615 251.59 237.947H235.222Z" fill="#333E48"/>
</g>
<defs>
<clipPath id="clip0_0_12">
<rect width="318.188" height="318.188" fill="white"/>
</clipPath>
</defs>
</svg>
