<svg width="319" height="319" viewBox="0 0 319 319" fill="none" xmlns="http://www.w3.org/2000/svg">
<g clip-path="url(#clip0_1_26)">
<path d="M227.321 7.5H40.342V310.688H277.846V58.025L227.321 7.5Z" fill="#E8E8E8"/>
<path d="M218.292 69.204H98.402V189.094H218.292V69.204Z" fill="#7AE459"/>
<path d="M192.295 130.178L168.483 170.358L129.743 104.984L98.402 157.872V189.093H218.292V174.049L192.295 130.178Z" fill="#007934"/>
<path d="M235.14 32.763H40.342V7.5H227.321L235.14 32.763Z" fill="#7AE459"/>
<path d="M227.321 58.025H277.846L227.321 7.5V58.025Z" fill="#D1D3D3"/>
<path d="M105.856 277.794C105.856 280.923 105.397 283.132 104.478 284.423C103.559 285.714 102.027 286.359 99.884 286.359C98.965 286.359 98.112 286.277 97.324 286.113C96.536 285.949 95.793 285.801 95.093 285.67V295.745C97.216 296.204 99.458 296.434 101.821 296.434C107.509 296.434 111.776 294.765 114.62 291.429C117.464 288.093 118.886 283.176 118.886 276.678V233.391H105.858V255.592V277.794H105.856ZM159.513 237.363C156.472 234.716 151.921 233.392 145.861 233.392H129.255V281.371H142.218V265.454H145.861C151.681 265.454 156.171 263.994 159.333 261.073C162.493 258.153 164.075 254.012 164.075 248.652C164.075 243.773 162.554 240.01 159.513 237.363ZM149.224 253.247C148.076 254.341 146.529 254.888 144.581 254.888H142.218V243.862H145.566C149.154 243.862 150.949 245.481 150.949 248.719C150.948 250.643 150.374 252.153 149.224 253.247ZM190.984 263.289H199.549V270.804C197.93 271.177 196.157 271.362 194.233 271.362C190.71 271.362 188.014 270.186 186.143 267.834C184.273 265.482 183.337 262.063 183.337 257.578C183.337 253.006 184.37 249.489 186.439 247.027C188.506 244.566 191.432 243.335 195.217 243.335C199.352 243.335 203.148 244.189 206.605 245.895L210.708 235.721C208.717 234.846 206.381 234.124 203.701 233.555C201.02 232.987 198.171 232.702 195.152 232.702C187.188 232.702 180.996 234.857 176.577 239.167C172.158 243.478 169.948 249.505 169.948 257.25C169.948 265.192 171.967 271.308 176.003 275.595C180.04 279.883 185.755 282.027 193.15 282.027C199.888 282.027 206.069 281.065 211.692 279.139V253.279H190.984V263.289ZM283.149 52.722L232.625 2.197C231.218 0.79 229.311 0 227.321 0H40.342C36.2 0 32.842 3.358 32.842 7.5V310.688C32.842 314.83 36.2 318.188 40.342 318.188H277.846C281.989 318.188 285.346 314.83 285.346 310.688V58.025C285.346 56.036 284.556 54.129 283.149 52.722ZM234.821 25.606L259.739 50.525H234.821V25.606ZM47.842 15H219.821V25.263H47.842V15ZM270.346 303.188H47.842V40.263H219.821V58.026C219.821 62.168 223.178 65.526 227.321 65.526H270.345V303.188H270.346Z" fill="#333E48"/>
<rect x="81" y="226" width="147" height="71" fill="#E8E8E8"/>
<path d="M116.782 235.66C116.567 233.29 115.608 231.448 113.906 230.134C112.225 228.798 109.823 228.13 106.7 228.13C104.631 228.13 102.908 228.4 101.529 228.938C100.15 229.477 99.1162 230.22 98.4268 231.168C97.7375 232.094 97.382 233.161 97.3604 234.367C97.3174 235.358 97.5112 236.231 97.9421 236.985C98.3945 237.739 99.0408 238.407 99.881 238.988C100.743 239.548 101.777 240.044 102.983 240.475C104.19 240.906 105.547 241.283 107.055 241.606L112.743 242.898C116.017 243.609 118.904 244.557 121.403 245.742C123.924 246.927 126.035 248.338 127.737 249.975C129.46 251.613 130.764 253.498 131.647 255.631C132.53 257.763 132.983 260.155 133.004 262.805C132.983 266.984 131.927 270.571 129.837 273.566C127.748 276.56 124.742 278.855 120.821 280.449C116.922 282.043 112.215 282.84 106.7 282.84C101.163 282.84 96.3371 282.011 92.2223 280.352C88.1075 278.693 84.9083 276.172 82.6246 272.79C80.341 269.408 79.1669 265.131 79.1023 259.961H94.4197C94.549 262.094 95.1199 263.871 96.1325 265.293C97.145 266.715 98.5346 267.792 100.301 268.525C102.089 269.257 104.157 269.623 106.506 269.623C108.66 269.623 110.491 269.332 111.999 268.751C113.529 268.169 114.703 267.361 115.522 266.327C116.34 265.293 116.76 264.108 116.782 262.772C116.76 261.523 116.373 260.456 115.619 259.573C114.865 258.668 113.701 257.893 112.129 257.246C110.577 256.579 108.595 255.965 106.183 255.404L99.267 253.789C93.5365 252.475 89.0231 250.353 85.7269 247.423C82.4308 244.471 80.7934 240.486 80.815 235.466C80.7934 231.373 81.8922 227.786 84.1112 224.705C86.3301 221.624 89.4001 219.222 93.321 217.499C97.242 215.775 101.712 214.913 106.732 214.913C111.859 214.913 116.308 215.786 120.078 217.531C123.87 219.254 126.81 221.678 128.9 224.802C130.99 227.926 132.056 231.545 132.099 235.66H116.782ZM149.74 215.818L164.54 264.291H165.09L179.89 215.818H197.793L175.463 282H154.167L131.837 215.818H149.74ZM238.07 237.437C237.704 236.08 237.165 234.884 236.454 233.85C235.743 232.795 234.871 231.9 233.837 231.168C232.802 230.435 231.618 229.886 230.282 229.52C228.946 229.132 227.481 228.938 225.887 228.938C222.677 228.938 219.898 229.714 217.55 231.265C215.223 232.816 213.424 235.078 212.153 238.051C210.882 241.003 210.246 244.59 210.246 248.812C210.246 253.056 210.86 256.676 212.088 259.67C213.316 262.665 215.094 264.948 217.42 266.521C219.747 268.094 222.569 268.88 225.887 268.88C228.817 268.88 231.294 268.406 233.319 267.458C235.366 266.489 236.917 265.121 237.973 263.354C239.029 261.587 239.556 259.509 239.556 257.117L242.529 257.473H226.436V245.807H254.971V254.564C254.971 260.489 253.71 265.562 251.19 269.785C248.691 274.007 245.244 277.25 240.849 279.512C236.476 281.774 231.445 282.905 225.758 282.905C219.445 282.905 213.898 281.537 209.115 278.801C204.333 276.065 200.606 272.165 197.934 267.103C195.263 262.018 193.927 255.986 193.927 249.006C193.927 243.577 194.735 238.762 196.351 234.561C197.967 230.339 200.218 226.762 203.105 223.832C206.013 220.902 209.374 218.683 213.187 217.175C217.022 215.667 221.147 214.913 225.564 214.913C229.399 214.913 232.964 215.463 236.26 216.561C239.578 217.66 242.508 219.211 245.05 221.215C247.614 223.218 249.693 225.599 251.287 228.357C252.881 231.114 253.872 234.141 254.26 237.437H238.07Z" fill="#333E48"/>
</g>
<defs>
<clipPath id="clip0_1_26">
<rect width="318.188" height="318.188" fill="white"/>
</clipPath>
</defs>
</svg>
