<svg width="319" height="319" viewBox="0 0 319 319" fill="none" xmlns="http://www.w3.org/2000/svg">
<g clip-path="url(#clip0_1_15)">
<path d="M227.321 7.5H40.342V310.688H277.846V58.025L227.321 7.5Z" fill="#E8E8E8"/>
<path d="M218.292 69.204H98.402V189.094H218.292V69.204Z" fill="#F8FF38"/>
<path d="M192.295 130.178L168.483 170.358L129.743 104.984L98.402 157.872V189.093H218.292V174.049L192.295 130.178Z" fill="#007934"/>
<path d="M235.14 32.763H40.342V7.5H227.321L235.14 32.763Z" fill="#F8FF38"/>
<path d="M227.321 58.025H277.846L227.321 7.5V58.025Z" fill="#D1D3D3"/>
<path d="M105.856 277.794C105.856 280.923 105.397 283.132 104.478 284.423C103.559 285.714 102.027 286.359 99.884 286.359C98.965 286.359 98.112 286.277 97.324 286.113C96.536 285.949 95.793 285.801 95.093 285.67V295.745C97.216 296.204 99.458 296.434 101.821 296.434C107.509 296.434 111.776 294.765 114.62 291.429C117.464 288.093 118.886 283.176 118.886 276.678V233.391H105.858V255.592V277.794H105.856ZM159.513 237.363C156.472 234.716 151.921 233.392 145.861 233.392H129.255V281.371H142.218V265.454H145.861C151.681 265.454 156.171 263.994 159.333 261.073C162.493 258.153 164.075 254.012 164.075 248.652C164.075 243.773 162.554 240.01 159.513 237.363ZM149.224 253.247C148.076 254.341 146.529 254.888 144.581 254.888H142.218V243.862H145.566C149.154 243.862 150.949 245.481 150.949 248.719C150.948 250.643 150.374 252.153 149.224 253.247ZM190.984 263.289H199.549V270.804C197.93 271.177 196.157 271.362 194.233 271.362C190.71 271.362 188.014 270.186 186.143 267.834C184.273 265.482 183.337 262.063 183.337 257.578C183.337 253.006 184.37 249.489 186.439 247.027C188.506 244.566 191.432 243.335 195.217 243.335C199.352 243.335 203.148 244.189 206.605 245.895L210.708 235.721C208.717 234.846 206.381 234.124 203.701 233.555C201.02 232.987 198.171 232.702 195.152 232.702C187.188 232.702 180.996 234.857 176.577 239.167C172.158 243.478 169.948 249.505 169.948 257.25C169.948 265.192 171.967 271.308 176.003 275.595C180.04 279.883 185.755 282.027 193.15 282.027C199.888 282.027 206.069 281.065 211.692 279.139V253.279H190.984V263.289ZM283.149 52.722L232.625 2.197C231.218 0.79 229.311 0 227.321 0H40.342C36.2 0 32.842 3.358 32.842 7.5V310.688C32.842 314.83 36.2 318.188 40.342 318.188H277.846C281.989 318.188 285.346 314.83 285.346 310.688V58.025C285.346 56.036 284.556 54.129 283.149 52.722ZM234.821 25.606L259.739 50.525H234.821V25.606ZM47.842 15H219.821V25.263H47.842V15ZM270.346 303.188H47.842V40.263H219.821V58.026C219.821 62.168 223.178 65.526 227.321 65.526H270.345V303.188H270.346Z" fill="#333E48"/>
<rect x="81" y="226" width="147" height="71" fill="#E8E8E8"/>
<path d="M69.7287 277L51.527 214.455H68.2322L77.669 255.439H78.1882L88.9688 214.455H102.589L113.37 255.531H113.889L123.357 214.455H140.031L121.86 277H107.293L96.0234 239.07H95.5348L84.2656 277H69.7287ZM154.397 277.886C149.49 277.886 145.256 276.919 141.693 274.984C138.15 273.03 135.422 270.251 133.508 266.647C131.614 263.023 130.668 258.717 130.668 253.729C130.668 248.883 131.625 244.648 133.538 241.024C135.452 237.38 138.15 234.55 141.632 232.534C145.113 230.498 149.216 229.48 153.939 229.48C157.278 229.48 160.332 229.999 163.101 231.038C165.87 232.076 168.262 233.613 170.278 235.649C172.293 237.685 173.861 240.2 174.981 243.192C176.101 246.165 176.661 249.575 176.661 253.423V257.149H135.89V248.476H162.765C162.745 246.888 162.368 245.473 161.635 244.231C160.902 242.989 159.894 242.022 158.612 241.33C157.349 240.617 155.894 240.261 154.244 240.261C152.575 240.261 151.079 240.637 149.755 241.391C148.432 242.124 147.383 243.131 146.61 244.414C145.836 245.676 145.429 247.112 145.388 248.72V257.546C145.388 259.46 145.765 261.14 146.518 262.585C147.271 264.01 148.34 265.12 149.725 265.914C151.109 266.708 152.758 267.105 154.672 267.105C155.995 267.105 157.197 266.922 158.276 266.555C159.355 266.189 160.281 265.649 161.055 264.937C161.829 264.224 162.409 263.349 162.796 262.31L176.508 262.707C175.938 265.782 174.686 268.459 172.752 270.739C170.838 272.999 168.323 274.76 165.208 276.023C162.093 277.265 158.489 277.886 154.397 277.886ZM175.688 277V214.455H190.622V238.123H190.927C191.538 236.698 192.403 235.323 193.523 234C194.663 232.677 196.109 231.598 197.86 230.763C199.631 229.908 201.749 229.48 204.212 229.48C207.47 229.48 210.513 230.335 213.344 232.045C216.194 233.756 218.495 236.392 220.245 239.955C221.996 243.518 222.872 248.058 222.872 253.576C222.872 258.89 222.027 263.339 220.337 266.922C218.668 270.505 216.408 273.193 213.557 274.984C210.727 276.776 207.582 277.672 204.12 277.672C201.759 277.672 199.713 277.285 197.982 276.511C196.251 275.738 194.796 274.72 193.615 273.457C192.454 272.195 191.558 270.841 190.927 269.396H190.469V277H175.688ZM190.317 253.545C190.317 256.07 190.652 258.269 191.324 260.142C192.017 262.015 193.004 263.471 194.287 264.509C195.59 265.527 197.147 266.036 198.959 266.036C200.792 266.036 202.349 265.527 203.632 264.509C204.915 263.471 205.882 262.015 206.533 260.142C207.205 258.269 207.541 256.07 207.541 253.545C207.541 251.021 207.205 248.832 206.533 246.979C205.882 245.127 204.915 243.691 203.632 242.673C202.37 241.655 200.812 241.146 198.959 241.146C197.127 241.146 195.569 241.645 194.287 242.643C193.004 243.64 192.017 245.066 191.324 246.918C190.652 248.771 190.317 250.98 190.317 253.545ZM222.098 277V214.455H247.934C252.617 214.455 256.659 215.371 260.059 217.203C263.479 219.015 266.116 221.55 267.968 224.808C269.821 228.045 270.748 231.811 270.748 236.107C270.748 240.424 269.801 244.2 267.907 247.438C266.034 250.654 263.357 253.148 259.875 254.92C256.394 256.691 252.261 257.577 247.476 257.577H231.535V245.666H244.667C246.947 245.666 248.851 245.269 250.378 244.475C251.925 243.681 253.096 242.571 253.89 241.146C254.684 239.701 255.081 238.021 255.081 236.107C255.081 234.173 254.684 232.504 253.89 231.099C253.096 229.674 251.925 228.574 250.378 227.8C248.83 227.027 246.927 226.64 244.667 226.64H237.215V277H222.098Z" fill="#333E48"/>
</g>
<defs>
<clipPath id="clip0_1_15">
<rect width="318.188" height="318.188" fill="white"/>
</clipPath>
</defs>
</svg>
